<?xml version="1.0" encoding="utf-8"?>
<svg xmlns="http://www.w3.org/2000/svg" viewBox="131.446 183.571 196 195" width="196px" height="195px"><path d="M 300.929 215.9 L 301.055 216.035 L 302.04 217.084 L 303.091 218.243 L 307.607 223.708 L 307.975 224.227 L 310.881 228.323 L 311.366 229.006 L 311.678 229.446 L 313.47 232.419 L 315.297 235.447 L 318.458 241.699 L 321.159 248.193 L 321.361 248.803 L 323.392 254.916 L 325.153 261.858 L 325.751 265.187 L 326.438 269.007 L 326.766 271.498 L 327.03 273.953 L 327.229 276.384 L 327.365 278.804 L 327.437 281.223 L 327.438 281.571 L 327.446 283.654 L 327.393 286.108 L 327.278 288.596 L 327.095 291.286 L 326.859 293.797 L 326.555 296.215 L 326.275 297.955 L 326.167 298.63 L 325.678 301.127 L 325.074 303.795 L 324.483 306.147 L 324.34 306.72 L 323.458 309.99 L 323.276 310.642 L 323.105 311.238 L 322.941 311.79 L 322.779 312.312 L 322.616 312.815 L 322.448 313.312 L 322.271 313.816 L 322.081 314.339 L 321.341 316.251 L 320.513 318.24 L 319.609 320.286 L 319.558 320.395 L 318.637 322.366 L 318.556 322.531 L 317.61 324.46 L 316.535 326.545 L 315.425 328.599 L 314.288 330.602 L 314.214 330.723 L 312.083 334.236 L 311.366 335.316 L 309.804 337.669 L 308.893 338.915 L 307.41 340.946 L 304.863 344.115 L 302.226 347.107 L 302.122 347.225 L 299.147 350.321 L 295.899 353.45 L 294.982 354.277 L 293.849 355.299 L 292.338 356.662 L 291.123 357.696 L 289.847 358.731 L 288.513 359.762 L 287.127 360.785 L 286.79 361.023 L 285.693 361.797 L 284.216 362.794 L 283.136 363.491 L 282.7 363.773 L 281.151 364.73 L 278.598 366.205 L 277.337 366.934 L 273.485 368.955 L 269.603 370.79 L 265.694 372.439 L 262.214 373.731 L 261.766 373.898 L 257.824 375.164 L 254.022 376.196 L 253.873 376.237 L 249.919 377.113 L 248.881 377.309 L 247.787 377.501 L 246.668 377.684 L 245.83 377.812 L 245.552 377.855 L 244.47 378.009 L 243.452 378.141 L 242.528 378.247 L 241.727 378.322 L 240.325 378.404 L 238.398 378.472 L 237.638 378.489 L 236.124 378.523 L 233.677 378.557 L 231.236 378.571 L 229.446 378.565 L 228.975 378.564 L 227.071 378.533 L 225.701 378.478 L 222.797 378.254 L 221.254 378.092 L 219.94 377.955 L 217.116 377.577 L 214.313 377.119 L 213.062 376.877 L 211.518 376.579 L 208.717 375.955 L 205.897 375.243 L 203.045 374.442 L 200.314 373.592 L 197.59 372.66 L 196.678 372.319 L 194.883 371.65 L 192.203 370.566 L 189.562 369.414 L 186.97 368.196 L 184.438 366.919 L 181.976 365.587 L 180.294 364.616 L 180.081 364.493 L 178.435 363.491 L 178.173 363.331 L 176.265 362.111 L 174.372 360.841 L 172.509 359.533 L 172.102 359.234 L 170.687 358.196 L 168.923 356.839 L 167.23 355.472 L 167.026 355.299 L 165.526 354.02 L 163.91 352.566 L 163.815 352.481 L 162.111 350.869 L 160.427 349.198 L 158.777 347.483 L 158.431 347.107 L 157.174 345.738 L 155.634 343.976 L 154.169 342.213 L 152.905 340.615 L 151.648 338.957 L 150.41 337.256 L 149.206 335.532 L 148.047 333.805 L 146.947 332.092 L 146.107 330.723 L 145.918 330.414 L 144.973 328.788 L 144.017 327.067 L 143.105 325.367 L 142.236 323.689 L 141.411 322.034 L 140.631 320.405 L 139.896 318.801 L 139.206 317.223 L 138.563 315.674 L 138.05 314.339 L 137.252 312.26 L 136.077 308.851 L 135.035 305.435 L 134.123 301.996 L 133.336 298.522 L 133.229 297.955 L 132.673 294.997 L 132.129 291.407 L 131.937 289.763 L 131.702 287.74 L 131.628 286.954 L 131.569 286.191 L 131.524 285.394 L 131.491 284.506 L 131.469 283.469 L 131.455 282.227 L 131.451 281.571 L 131.448 280.721 L 131.446 278.895 L 131.448 277.069 L 131.455 275.559 L 131.469 274.309 L 131.488 273.379 L 131.491 273.261 L 131.524 272.361 L 131.569 271.551 L 131.628 270.774 L 131.702 269.975 L 132.165 265.99 L 132.288 265.187 L 132.77 262.058 L 133.516 258.188 L 134.4 254.384 L 135.421 250.653 L 136.006 248.803 L 136.577 247.002 L 137.867 243.437 L 139.29 239.964 L 140.079 238.2 L 140.903 236.459 L 141.76 234.742 L 142.651 233.05 L 143 232.419 L 143.575 231.384 L 144.53 229.746 L 145.517 228.137 L 146.535 226.559 L 147.431 225.225 L 147.526 225.088 L 148.123 224.227 L 148.376 223.864 L 149.356 222.493 L 150.358 221.13 L 151.368 219.791 L 152.375 218.495 L 153.364 217.259 L 154.322 216.101 L 154.38 216.035 L 157.283 212.746 L 160.319 209.624 L 163.465 206.71 L 163.91 206.34 L 166.753 203.977 L 170.217 201.399 L 173.891 198.948 L 177.808 196.599 L 180.294 195.251 L 182.001 194.325 L 184.457 193.104 L 186.96 191.952 L 189.513 190.867 L 192.114 189.851 L 194.763 188.904 L 196.678 188.28 L 197.461 188.025 L 200.206 187.215 L 202.999 186.473 L 205.485 185.883 L 207.982 185.359 L 210.491 184.901 L 213.014 184.509 L 213.062 184.503 L 215.554 184.183 L 218.112 183.922 L 220.692 183.726 L 221.254 183.698 L 223.295 183.596 L 223.97 183.581 L 224.887 183.572 L 225.35 183.571 L 225.965 183.571 L 227.124 183.576 L 228.282 183.586 L 229.359 183.601 L 229.446 183.603 L 230.275 183.622 L 230.949 183.646 L 232.806 183.755 L 234.627 183.893 L 236.42 184.06 L 238.188 184.257 L 239.938 184.485 L 241.675 184.745 L 243.404 185.036 L 245.132 185.36 L 245.83 185.512 L 249.086 186.223 L 253.049 187.258 L 254.022 187.553 L 257.009 188.458 L 260.953 189.82 L 262.214 190.309 L 264.867 191.338 L 268.741 193.009 L 272.56 194.828 L 276.313 196.79 L 278.475 198.017 L 278.598 198.092 L 280.677 199.357 L 281.131 199.651 L 282.903 200.797 L 285.14 202.329 L 287.37 203.94 L 289.58 205.619 L 291.753 207.357 L 292.33 207.843 L 293.874 209.142 L 294.982 210.117 L 295.019 210.15 L 296.197 211.226 L 297.393 212.355 L 298.59 213.521 L 299.774 214.707 L 300.929 215.9 M 287.612 211.41 L 287.049 210.955 L 286.79 210.746 L 286.488 210.502 L 285.946 210.063 L 285.44 209.653 L 285.259 209.506 L 284.986 209.284 L 284.602 208.97 L 283.81 208.324 L 283.211 207.843 L 283.103 207.756 L 282.461 207.25 L 281.866 206.793 L 281.298 206.37 L 280.738 205.967 L 280.166 205.568 L 279.564 205.16 L 278.598 204.535 L 278.11 204.219 L 276.51 203.244 L 274.789 202.25 L 272.974 201.251 L 271.09 200.259 L 269.163 199.29 L 267.217 198.355 L 265.279 197.47 L 263.232 196.588 L 262.214 196.175 L 261.17 195.751 L 259.106 194.965 L 257.052 194.233 L 255.022 193.559 L 254.022 193.253 L 253.029 192.949 L 251.084 192.407 L 249.926 192.117 L 249.202 191.936 L 249.002 191.89 L 248.805 191.845 L 248.615 191.804 L 248.439 191.766 L 248.437 191.765 L 248.281 191.734 L 248.146 191.708 L 248.04 191.69 L 247.968 191.679 L 247.89 191.67 L 247.878 191.669 L 247.828 191.665 L 247.78 191.664 L 247.743 191.668 L 247.716 191.677 L 247.696 191.692 L 247.682 191.713 L 247.671 191.74 L 247.553 192.317 L 247.347 193.505 L 247.346 193.507 L 247.077 195.155 L 247.013 195.555 L 246.765 197.122 L 246.436 199.256 L 246.376 199.651 L 246.112 201.41 L 245.83 203.342 L 245.816 203.438 L 245.572 205.191 L 245.114 208.984 L 244.772 212.704 L 244.565 216.035 L 244.547 216.333 L 244.439 219.854 L 244.449 223.251 L 244.577 226.506 L 244.823 229.603 L 245.188 232.526 L 245.446 234.087 L 245.824 236.161 L 246.289 238.578 L 246.805 241.172 L 247.34 243.773 L 247.858 246.214 L 248.327 248.327 L 248.439 248.803 L 248.71 249.943 L 249.295 252.171 L 249.897 254.287 L 250.516 256.292 L 250.752 256.995 L 251.153 258.186 L 251.808 259.971 L 252.482 261.649 L 253.175 263.219 L 253.887 264.683 L 254.151 265.187 L 254.2 265.279 L 254.466 265.754 L 254.694 266.117 L 254.765 266.211 L 254.888 266.373 L 255.055 266.531 L 255.202 266.597 L 255.334 266.579 L 255.459 266.483 L 255.516 266.419 L 255.563 266.356 L 255.602 266.294 L 255.632 266.234 L 255.639 266.211 L 255.65 266.182 L 255.652 266.176 L 255.662 266.123 L 255.663 266.121 L 255.665 266.068 L 255.658 266.019 L 255.652 265.992 L 255.65 265.967 L 255.65 265.963 L 255.65 265.945 L 255.655 265.925 L 255.662 265.908 L 255.673 265.894 L 255.687 265.882 L 255.704 265.873 L 255.716 265.856 L 255.799 265.75 L 255.829 265.694 L 255.986 265.413 L 256.07 265.248 L 256.101 265.187 L 256.269 264.859 L 256.649 264.083 L 257.128 263.081 L 257.707 261.85 L 258.191 260.811 L 258.39 260.387 L 259.176 258.686 L 259.959 256.995 L 260.629 255.548 L 261.847 252.943 L 262.214 252.172 L 262.875 250.785 L 263.754 248.988 L 263.848 248.803 L 264.529 247.467 L 265.241 246.135 L 265.934 244.906 L 266.651 243.693 L 267.462 242.396 L 268.418 240.952 L 269.489 239.403 L 270.642 237.793 L 271.848 236.165 L 273.074 234.561 L 274.289 233.024 L 274.787 232.419 L 275.463 231.598 L 277.065 229.709 L 278.588 227.95 L 280.098 226.25 L 281.662 224.537 L 283.346 222.737 L 285.217 220.781 L 287.343 218.594 L 289.789 216.106 L 289.858 216.036 L 289.859 216.035 L 290.041 215.851 L 290.299 215.59 L 290.886 214.995 L 290.891 214.99 L 291.15 214.729 L 291.332 214.544 L 291.401 214.474 L 291.4 214.474 L 291.395 214.468 L 291.377 214.452 L 291.351 214.43 L 291.322 214.405 L 291.297 214.384 L 291.293 214.381 L 291.29 214.379 L 291.268 214.359 L 291.266 214.358 L 291.259 214.351 L 291.25 214.343 L 291.243 214.338 L 291.162 214.272 L 290.992 214.135 L 290.886 214.049 L 290.743 213.933 L 290.425 213.677 L 290.049 213.374 L 289.626 213.033 L 289.587 213.002 L 289.304 212.775 L 289.165 212.663 L 288.678 212.271 L 288.565 212.18 L 288.267 211.939 L 288.161 211.853 L 287.612 211.41 M 229.878 247.131 L 229.446 244.789 L 229.278 243.878 L 228.765 240.651 L 228.759 240.611 L 228.336 237.416 L 227.985 234.137 L 227.843 232.419 L 227.709 230.779 L 227.504 227.308 L 227.385 224.227 L 227.365 223.686 L 227.343 222.654 L 227.328 221.314 L 227.318 219.764 L 227.315 218.099 L 227.318 216.416 L 227.32 216.035 L 227.328 214.811 L 227.343 213.381 L 227.365 212.221 L 227.417 210.271 L 227.477 208.38 L 227.546 206.493 L 227.628 204.552 L 227.725 202.501 L 227.84 200.281 L 227.874 199.651 L 227.95 198.274 L 227.975 197.837 L 228.133 195.111 L 228.174 194.399 L 228.214 193.69 L 228.253 193.001 L 228.29 192.351 L 228.307 192.042 L 228.323 191.761 L 228.327 191.673 L 228.339 191.459 L 228.351 191.247 L 228.374 190.829 L 228.376 190.784 L 228.389 190.525 L 228.402 190.292 L 228.413 190.093 L 228.415 190.074 L 228.418 190.019 L 228.425 189.916 L 228.428 189.874 L 228.44 189.698 L 228.45 189.55 L 228.459 189.437 L 228.461 189.411 L 228.466 189.362 L 228.471 189.331 L 228.469 189.316 L 228.42 189.306 L 228.295 189.301 L 228.067 189.302 L 227.707 189.309 L 227.186 189.322 L 226.475 189.343 L 225.547 189.371 L 225.35 189.377 L 224.643 189.4 L 223.771 189.432 L 222.93 189.467 L 222.118 189.507 L 221.333 189.549 L 221.254 189.554 L 220.573 189.596 L 219.836 189.646 L 219.122 189.699 L 215.108 190.089 L 213.062 190.371 L 211.193 190.63 L 207.369 191.324 L 203.632 192.17 L 199.975 193.171 L 196.678 194.237 L 196.393 194.329 L 192.878 195.644 L 189.425 197.117 L 188.519 197.539 L 187.531 198.015 L 186.524 198.515 L 185.56 199.004 L 184.701 199.453 L 184.335 199.651 L 184.011 199.827 L 183.551 200.096 L 183.454 200.171 L 183.384 200.227 L 183.401 200.256 L 183.458 200.285 L 183.559 200.315 L 183.71 200.346 L 183.714 200.346 L 183.916 200.38 L 184.183 200.416 L 184.516 200.458 L 184.92 200.504 L 186.064 200.653 L 187.12 200.791 L 187.733 200.894 L 188.486 201.022 L 189.208 201.144 L 191.201 201.571 L 193.122 202.075 L 194.987 202.663 L 196.678 203.288 L 196.819 203.34 L 198.637 204.112 L 200.459 204.984 L 201.911 205.746 L 203.337 206.553 L 204.737 207.405 L 206.109 208.301 L 207.454 209.24 L 208.769 210.223 L 210.056 211.249 L 211.314 212.317 L 212.052 212.989 L 212.87 213.774 L 213.062 213.966 L 213.732 214.636 L 214.602 215.538 L 215.066 216.035 L 215.446 216.442 L 216.228 217.312 L 216.914 218.109 L 217.468 218.798 L 217.681 219.084 L 217.907 219.405 L 218.162 219.781 L 218.459 220.236 L 218.815 220.794 L 219.243 221.476 L 219.758 222.307 L 220.376 223.308 L 220.939 224.227 L 221.269 224.765 L 221.987 225.955 L 222.563 226.936 L 223.027 227.767 L 223.412 228.507 L 223.75 229.214 L 224.072 229.948 L 224.411 230.767 L 224.938 232.14 L 225.034 232.419 L 225.409 233.504 L 225.824 234.87 L 226.186 236.244 L 226.497 237.636 L 226.758 239.055 L 226.972 240.508 L 226.983 240.611 L 227.14 242.005 L 227.177 242.531 L 227.208 243.221 L 227.231 244.022 L 227.247 244.883 L 227.254 245.751 L 227.252 246.575 L 227.24 247.302 L 227.217 247.881 L 227.131 248.803 L 226.935 250.92 L 226.458 253.907 L 225.788 256.836 L 224.926 259.699 L 223.875 262.49 L 222.643 265.187 L 222.638 265.2 L 221.217 267.824 L 219.613 270.353 L 219.082 271.115 L 218.561 271.833 L 218.036 272.519 L 217.496 273.19 L 217.335 273.379 L 217.158 273.588 L 216.928 273.86 L 216.32 274.544 L 215.659 275.257 L 215.495 275.427 L 214.934 276.013 L 214.745 276.208 L 214.569 276.391 L 214.41 276.557 L 214.272 276.703 L 214.159 276.824 L 214.075 276.917 L 214.022 276.977 L 214.008 276.998 L 214.007 277 L 214.035 277.019 L 214.109 277.068 L 214.224 277.144 L 214.375 277.243 L 214.556 277.364 L 214.722 277.475 L 214.762 277.501 L 214.989 277.651 L 215.23 277.812 L 216.106 278.399 L 216.905 278.951 L 217.642 279.478 L 218.33 279.991 L 218.983 280.499 L 219.616 281.014 L 220.241 281.546 L 220.269 281.571 L 220.873 282.105 L 221.531 282.714 L 222.215 283.379 L 222.909 284.083 L 223.596 284.807 L 224.258 285.532 L 224.88 286.241 L 225.443 286.916 L 225.931 287.538 L 226.209 287.921 L 226.495 288.351 L 226.8 288.848 L 227.135 289.429 L 227.317 289.763 L 227.508 290.112 L 227.931 290.915 L 228.415 291.857 L 228.968 292.956 L 229.446 293.917 L 229.769 294.567 L 230.39 295.834 L 230.864 296.837 L 231.222 297.652 L 231.339 297.955 L 231.497 298.359 L 231.721 299.034 L 231.927 299.757 L 232.147 300.606 L 232.575 302.334 L 232.921 303.875 L 233.194 305.285 L 233.401 306.616 L 233.549 307.922 L 233.645 309.258 L 233.698 310.677 L 233.714 312.232 L 233.708 313.198 L 233.692 314.044 L 233.681 314.339 L 233.664 314.799 L 233.622 315.489 L 233.565 316.139 L 233.489 316.779 L 233.392 317.433 L 233.274 318.129 L 233.123 318.934 L 232.966 319.702 L 232.8 320.445 L 232.621 321.172 L 232.426 321.895 L 232.241 322.531 L 232.214 322.625 L 231.98 323.374 L 231.722 324.151 L 231.417 325.042 L 231.172 325.742 L 230.965 326.306 L 230.773 326.79 L 230.572 327.25 L 230.341 327.741 L 230.054 328.319 L 229.69 329.04 L 229.471 329.467 L 229.446 329.515 L 229.248 329.898 L 229.028 330.321 L 228.818 330.723 L 228.817 330.725 L 228.621 331.098 L 228.445 331.428 L 228.295 331.703 L 228.179 331.912 L 227.786 332.58 L 227.322 333.309 L 226.796 334.088 L 226.216 334.906 L 225.592 335.749 L 224.931 336.608 L 224.243 337.47 L 223.535 338.323 L 223.014 338.915 L 222.581 339.407 L 221.602 340.429 L 220.579 341.406 L 219.49 342.355 L 218.316 343.293 L 217.036 344.237 L 215.631 345.203 L 214.078 346.21 L 213.518 346.548 L 213.062 346.804 L 212.852 346.923 L 212.506 347.107 L 212.091 347.328 L 211.245 347.759 L 210.325 348.211 L 209.34 348.679 L 208.301 349.157 L 207.218 349.642 L 205.255 350.454 L 203.17 351.219 L 200.985 351.933 L 198.72 352.588 L 196.678 353.107 L 196.398 353.179 L 194.039 353.7 L 191.665 354.146 L 189.297 354.51 L 188.334 354.637 L 187.421 354.747 L 186.518 354.84 L 185.585 354.922 L 184.581 354.996 L 183.468 355.063 L 182.203 355.129 L 180.747 355.195 L 180.317 355.217 L 180.294 355.218 L 179.917 355.239 L 179.553 355.262 L 179.23 355.286 L 179.073 355.299 L 178.953 355.309 L 178.727 355.333 L 178.559 355.355 L 178.453 355.377 L 178.375 355.441 L 178.409 355.558 L 178.563 355.734 L 178.845 355.974 L 179.261 356.284 L 179.818 356.669 L 180.294 356.983 L 180.525 357.136 L 181.217 357.581 L 181.387 357.69 L 181.462 357.738 L 181.493 357.757 L 181.555 357.797 L 181.662 357.866 L 181.779 357.941 L 181.902 358.02 L 181.949 358.05 L 182.029 358.101 L 182.156 358.181 L 182.278 358.259 L 182.565 358.438 L 182.669 358.504 L 182.687 358.515 L 183.268 358.868 L 183.972 359.289 L 184.15 359.395 L 184.747 359.748 L 185.541 360.214 L 186.304 360.657 L 186.984 361.047 L 187.531 361.354 L 188.486 361.856 L 190.841 363.096 L 191.669 363.491 L 194.239 364.716 L 196.678 365.764 L 197.698 366.203 L 201.195 367.55 L 204.704 368.746 L 208.2 369.783 L 211.657 370.651 L 213.062 370.937 L 215.051 371.342 L 216.116 371.526 L 217.162 371.692 L 218.192 371.841 L 219.207 371.973 L 220.21 372.089 L 221.202 372.188 L 221.254 372.192 L 222.187 372.272 L 223.167 372.34 L 224.368 372.384 L 226.072 372.405 L 228.149 372.403 L 229.446 372.391 L 230.47 372.382 L 232.907 372.341 L 235.331 372.285 L 237.614 372.213 L 237.638 372.212 L 239.628 372.128 L 240.683 372.069 L 241.713 372 L 242.707 371.92 L 243.653 371.832 L 244.538 371.736 L 245.351 371.634 L 245.83 371.564 L 246.08 371.528 L 246.714 371.418 L 247.141 371.332 L 247.605 371.232 L 248.082 371.125 L 248.55 371.015 L 248.985 370.909 L 249.365 370.81 L 249.667 370.726 L 249.868 370.662 L 249.926 370.64 L 249.931 370.638 L 249.992 370.617 L 250.051 370.598 L 250.104 370.582 L 250.152 370.57 L 250.182 370.563 L 250.192 370.561 L 250.222 370.556 L 250.241 370.556 L 250.258 370.557 L 250.279 370.555 L 250.306 370.548 L 250.335 370.538 L 250.368 370.526 L 250.402 370.511 L 250.437 370.494 L 250.438 370.493 L 250.472 370.475 L 250.506 370.456 L 250.541 370.438 L 250.574 370.423 L 250.606 370.411 L 250.634 370.402 L 250.66 370.397 L 250.672 370.396 L 250.681 370.396 L 250.697 370.4 L 250.737 370.406 L 250.781 370.4 L 250.808 370.39 L 250.828 370.383 L 250.877 370.355 L 250.925 370.318 L 250.95 370.293 L 250.97 370.273 L 251.011 370.221 L 251.045 370.163 L 251.116 369.968 L 251.154 369.691 L 251.154 369.635 L 251.156 369.3 L 251.118 368.757 L 251.038 368.03 L 250.978 367.587 L 250.911 367.084 L 250.736 365.883 L 250.508 364.393 L 250.369 363.491 L 250.204 362.413 L 249.926 360.527 L 249.67 358.717 L 249.434 356.963 L 249.216 355.246 L 249.013 353.548 L 248.823 351.849 L 248.644 350.13 L 248.369 347.107 L 248.169 344.89 L 247.803 339.579 L 247.545 334.151 L 247.452 330.723 L 247.394 328.56 L 247.35 322.759 L 247.411 316.702 L 247.472 314.339 L 247.576 310.345 L 247.845 303.64 L 247.934 301.814 L 248.032 299.902 L 248.135 297.991 L 248.137 297.955 L 248.238 296.167 L 248.334 294.518 L 248.374 293.859 L 248.42 293.13 L 248.491 292.09 L 248.514 291.811 L 248.542 291.484 L 248.543 291.472 L 248.546 291.438 L 248.551 291.392 L 248.563 291.284 L 248.568 291.238 L 248.571 291.204 L 248.572 291.192 L 248.54 291.156 L 248.534 291.148 L 248.433 291.033 L 248.29 290.87 L 247.963 290.496 L 247.878 290.398 L 247.821 290.333 L 247.72 290.218 L 247.681 290.174 L 247.324 289.763 L 247.272 289.702 L 246.917 289.29 L 246.605 288.922 L 246.323 288.581 L 246.057 288.253 L 245.83 287.967 L 245.794 287.922 L 245.523 287.571 L 245.229 287.185 L 242.969 283.924 L 241.588 281.571 L 240.833 280.284 L 238.82 276.265 L 236.928 271.866 L 235.158 267.086 L 234.551 265.187 L 233.509 261.923 L 231.98 256.377 L 230.57 250.446 L 230.227 248.803 L 229.878 247.131 M 314.467 317.609 L 314.565 317.392 L 314.664 317.172 L 314.762 316.957 L 314.856 316.753 L 314.943 316.566 L 315.226 315.931 L 315.529 315.211 L 315.85 314.411 L 315.877 314.339 L 316.187 313.538 L 316.538 312.596 L 316.901 311.591 L 317.275 310.527 L 317.657 309.41 L 318.288 307.483 L 318.694 306.147 L 318.853 305.628 L 319.357 303.822 L 319.806 302.041 L 320.205 300.261 L 320.56 298.459 L 320.646 297.955 L 320.876 296.612 L 321.159 294.694 L 321.455 292.255 L 321.679 289.764 L 321.829 287.234 L 321.907 284.672 L 321.913 282.089 L 321.899 281.571 L 321.845 279.494 L 321.705 276.898 L 321.492 274.309 L 320.899 269.477 L 320.147 265.187 L 320.063 264.705 L 318.987 260.003 L 317.675 255.382 L 316.129 250.853 L 315.307 248.803 L 314.354 246.425 L 312.351 242.11 L 311.366 240.255 L 310.125 237.918 L 309.65 237.103 L 309.053 236.125 L 308.372 235.039 L 307.642 233.9 L 306.9 232.765 L 306.668 232.419 L 306.181 231.689 L 305.522 230.727 L 304.959 229.935 L 304.883 229.834 L 304.809 229.739 L 304.739 229.652 L 304.676 229.576 L 304.62 229.512 L 304.574 229.462 L 304.54 229.43 L 304.519 229.416 L 304.374 229.449 L 304.13 229.584 L 303.789 229.817 L 303.356 230.147 L 303.174 230.294 L 302.833 230.571 L 302.224 231.086 L 301.532 231.69 L 300.761 232.379 L 300.717 232.419 L 299.804 233.266 L 298.583 234.436 L 297.198 235.786 L 295.75 237.218 L 294.982 237.987 L 294.341 238.63 L 293.071 239.922 L 292.04 240.993 L 291.35 241.743 L 290.239 243.04 L 289.003 244.521 L 287.706 246.107 L 286.41 247.721 L 285.556 248.803 L 285.176 249.285 L 284.067 250.719 L 283.145 251.947 L 282.472 252.891 L 282.079 253.48 L 281.641 254.156 L 281.172 254.896 L 280.685 255.678 L 280.195 256.481 L 279.714 257.281 L 279.257 258.057 L 278.837 258.787 L 278.598 259.234 L 276.466 263.225 L 275.545 265.187 L 274.332 267.773 L 272.432 272.435 L 270.766 277.213 L 269.489 281.571 L 269.333 282.107 L 268.134 287.121 L 267.167 292.257 L 266.431 297.517 L 266.111 300.633 L 265.87 303.799 L 265.708 307.014 L 265.624 310.274 L 265.619 313.577 L 265.635 314.339 L 265.691 316.921 L 265.843 320.304 L 266.073 323.723 L 266.191 325.127 L 266.32 326.55 L 266.461 327.978 L 266.611 329.4 L 266.761 330.723 L 266.77 330.801 L 266.935 332.17 L 267.106 333.494 L 267.281 334.759 L 267.738 337.765 L 268.267 340.938 L 268.844 344.162 L 269.407 347.107 L 269.448 347.319 L 270.054 350.292 L 270.639 352.964 L 271.18 355.217 L 271.202 355.299 L 271.653 356.934 L 271.925 357.761 L 272.194 358.457 L 272.468 359.033 L 272.691 359.395 L 272.755 359.497 L 273.061 359.861 L 273.394 360.134 L 273.76 360.326 L 274.167 360.446 L 274.28 360.466 L 274.375 360.477 L 274.455 360.479 L 274.502 360.472 L 274.521 360.47 L 274.573 360.452 L 274.612 360.424 L 274.615 360.419 L 274.641 360.385 L 274.659 360.336 L 274.667 360.31 L 274.671 360.301 L 274.678 360.29 L 274.691 360.275 L 274.707 360.264 L 274.726 360.259 L 274.735 360.258 L 274.75 360.257 L 274.758 360.257 L 274.779 360.259 L 274.813 360.265 L 274.846 360.273 L 274.874 360.276 L 274.875 360.276 L 274.897 360.275 L 274.916 360.269 L 274.916 360.268 L 274.932 360.258 L 274.945 360.241 L 274.956 360.218 L 274.966 360.189 L 274.973 360.163 L 274.974 360.162 L 274.984 360.14 L 274.997 360.124 L 275.012 360.112 L 275.014 360.111 L 275.031 360.105 L 275.055 360.104 L 275.084 360.107 L 275.12 360.114 L 275.153 360.121 L 275.164 360.122 L 275.181 360.125 L 275.204 360.124 L 275.223 360.118 L 275.239 360.106 L 275.252 360.09 L 275.263 360.067 L 275.27 360.046 L 275.273 360.038 L 275.279 360.02 L 275.282 360.012 L 275.292 359.991 L 275.303 359.974 L 275.317 359.962 L 275.332 359.954 L 275.35 359.951 L 275.369 359.952 L 275.391 359.958 L 275.415 359.96 L 275.446 359.955 L 275.485 359.944 L 275.526 359.929 L 275.531 359.927 L 275.581 359.904 L 275.636 359.875 L 275.694 359.841 L 275.755 359.801 L 275.933 359.694 L 276.072 359.619 L 276.192 359.555 L 276.504 359.396 L 276.506 359.395 L 276.55 359.373 L 276.845 359.23 L 277.188 359.067 L 277.508 358.923 L 277.574 358.894 L 277.601 358.883 L 277.779 358.807 L 277.977 358.733 L 278.047 358.708 L 278.086 358.692 L 278.11 358.682 L 278.168 358.656 L 278.217 358.63 L 278.221 358.627 L 278.26 358.603 L 278.294 358.577 L 278.319 358.551 L 278.335 358.526 L 278.342 358.513 L 278.349 358.501 L 278.364 358.48 L 278.38 358.464 L 278.398 358.453 L 278.401 358.452 L 278.419 358.447 L 278.444 358.446 L 278.459 358.447 L 278.472 358.449 L 278.504 358.456 L 278.536 358.462 L 278.563 358.464 L 278.585 358.462 L 278.598 358.457 L 278.603 358.455 L 278.619 358.444 L 278.631 358.427 L 278.643 358.404 L 278.653 358.375 L 278.654 358.371 L 278.661 358.353 L 278.665 358.344 L 278.673 358.331 L 278.689 358.309 L 278.708 358.29 L 278.729 358.273 L 278.752 358.258 L 278.776 358.247 L 278.801 358.239 L 278.83 358.23 L 278.867 358.215 L 278.91 358.194 L 278.958 358.169 L 279.008 358.139 L 279.061 358.107 L 279.11 358.075 L 279.113 358.073 L 279.165 358.038 L 279.216 358.003 L 279.27 357.97 L 279.272 357.968 L 279.324 357.941 L 279.378 357.916 L 279.428 357.895 L 279.475 357.879 L 279.515 357.87 L 279.549 357.866 L 279.579 357.865 L 279.608 357.86 L 279.611 357.859 L 279.622 357.856 L 279.636 357.852 L 279.65 357.846 L 279.662 357.842 L 279.686 357.828 L 279.707 357.813 L 279.716 357.803 L 279.724 357.795 L 279.738 357.775 L 279.755 357.753 L 279.783 357.728 L 279.795 357.719 L 279.82 357.702 L 279.865 357.674 L 279.917 357.646 L 279.974 357.619 L 279.985 357.614 L 280.034 357.593 L 280.096 357.569 L 280.134 357.554 L 280.17 357.541 L 280.238 357.512 L 280.299 357.482 L 280.354 357.45 L 280.402 357.417 L 280.445 357.382 L 280.481 357.348 L 280.481 357.347 L 280.511 357.312 L 280.538 357.278 L 280.567 357.248 L 280.595 357.222 L 280.624 357.2 L 280.646 357.187 L 280.654 357.183 L 280.683 357.171 L 280.702 357.165 L 280.712 357.163 L 280.742 357.161 L 280.768 357.158 L 280.795 357.152 L 280.823 357.141 L 280.852 357.127 L 280.859 357.122 L 280.879 357.11 L 280.902 357.091 L 280.904 357.09 L 280.916 357.079 L 280.927 357.069 L 280.946 357.045 L 280.968 357.02 L 281.001 356.992 L 281.043 356.962 L 281.046 356.959 L 281.094 356.93 L 281.151 356.898 L 281.158 356.894 L 281.213 356.866 L 281.279 356.836 L 281.281 356.835 L 281.346 356.808 L 281.419 356.777 L 281.485 356.747 L 281.543 356.716 L 281.593 356.685 L 281.636 356.654 L 281.67 356.625 L 281.671 356.624 L 281.697 356.595 L 281.714 356.566 L 281.728 356.542 L 281.728 356.541 L 281.745 356.518 L 281.765 356.495 L 281.788 356.474 L 281.812 356.456 L 281.834 356.441 L 281.837 356.44 L 281.863 356.428 L 281.888 356.42 L 281.99 356.369 L 282.083 356.323 L 282.138 356.296 L 282.58 356.021 L 282.694 355.944 L 283.148 355.641 L 283.639 355.299 L 283.775 355.205 L 284.395 354.758 L 284.742 354.498 L 284.94 354.35 L 285.322 354.042 L 285.343 354.026 L 285.528 353.844 L 285.539 353.834 L 285.554 353.814 L 285.57 353.795 L 285.587 353.778 L 285.606 353.763 L 285.623 353.751 L 285.624 353.751 L 285.625 353.75 L 285.641 353.742 L 285.658 353.736 L 285.672 353.734 L 285.732 353.713 L 285.77 353.7 L 285.94 353.599 L 286.177 353.436 L 286.423 353.251 L 286.477 353.211 L 286.79 352.966 L 286.838 352.929 L 287.255 352.592 L 287.724 352.202 L 288.242 351.763 L 288.992 351.12 L 289.805 350.417 L 290.643 349.688 L 291.469 348.965 L 292.247 348.28 L 292.94 347.666 L 293.51 347.154 L 293.561 347.107 L 293.921 346.779 L 294.462 346.267 L 294.982 345.763 L 295.064 345.684 L 295.701 345.058 L 296.346 344.413 L 296.975 343.776 L 297.561 343.172 L 298.079 342.627 L 298.503 342.168 L 299.645 340.888 L 300.782 339.582 L 301.348 338.915 L 301.889 338.278 L 302.943 337.006 L 303.92 335.795 L 304.796 334.674 L 305.546 333.672 L 306.147 332.819 L 306.633 332.086 L 307.148 331.284 L 307.499 330.723 L 307.664 330.46 L 307.863 330.134 L 308.152 329.664 L 308.582 328.943 L 308.925 328.345 L 308.946 328.305 L 309.089 328.036 L 309.152 327.92 L 309.22 327.749 L 309.235 327.714 L 309.237 327.698 L 309.243 327.679 L 309.252 327.658 L 309.265 327.637 L 309.267 327.633 L 309.281 327.614 L 309.299 327.592 L 309.32 327.569 L 309.342 327.548 L 309.627 327.155 L 309.939 326.627 L 310.107 326.344 L 310.73 325.213 L 311.366 324.008 L 311.445 323.859 L 312.126 322.531 L 312.203 322.381 L 312.951 320.877 L 313.639 319.443 L 314.099 318.435 L 314.174 318.27 L 314.18 318.257 L 314.216 318.179 L 314.285 318.02 L 314.29 318.009 L 314.375 317.817 L 314.446 317.654 L 314.467 317.609 M 206.801 231.625 L 206.745 231.534 L 206.691 231.446 L 206.641 231.361 L 206.597 231.284 L 206.579 231.252 L 206.56 231.216 L 206.532 231.16 L 206.372 230.885 L 206.122 230.522 L 205.798 230.093 L 205.42 229.622 L 205.007 229.131 L 204.87 228.975 L 204.578 228.642 L 204.149 228.178 L 203.741 227.763 L 203.251 227.301 L 202.696 226.811 L 202.088 226.301 L 201.438 225.78 L 200.759 225.259 L 200.063 224.745 L 199.362 224.25 L 199.327 224.227 L 198.667 223.782 L 198.225 223.504 L 197.672 223.175 L 197.041 222.811 L 196.678 222.608 L 196.362 222.431 L 195.667 222.051 L 194.988 221.689 L 194.356 221.363 L 193.803 221.091 L 192.303 220.414 L 190.761 219.8 L 189.183 219.248 L 187.573 218.761 L 185.935 218.34 L 184.274 217.985 L 182.594 217.699 L 180.901 217.482 L 180.515 217.455 L 180.294 217.445 L 179.948 217.429 L 179.261 217.407 L 178.516 217.39 L 177.775 217.378 L 177.1 217.374 L 176.551 217.378 L 176.19 217.392 L 175.349 217.465 L 174.549 217.547 L 173.81 217.635 L 173.154 217.725 L 172.602 217.815 L 172.174 217.902 L 172.102 217.922 L 171.892 217.982 L 171.777 218.052 L 171.78 218.149 L 171.829 218.346 L 171.923 218.645 L 172.063 219.045 L 172.102 219.15 L 172.248 219.546 L 172.472 220.131 L 172.48 220.151 L 172.758 220.859 L 173.082 221.67 L 173.403 222.502 L 174.068 224.227 L 175.235 227.248 L 177.056 232.419 L 177.152 232.691 L 178.845 238.043 L 180.325 243.344 L 181.603 248.635 L 181.637 248.803 L 182.689 253.959 L 183.595 259.357 L 184.331 264.87 L 184.368 265.179 L 184.369 265.187 L 184.39 265.35 L 184.406 265.475 L 184.442 265.75 L 184.478 265.997 L 184.51 266.209 L 184.51 266.211 L 184.539 266.38 L 184.563 266.502 L 184.582 266.568 L 184.631 266.672 L 184.687 266.753 L 184.755 266.813 L 184.844 266.856 L 184.958 266.882 L 185.105 266.894 L 185.292 266.895 L 185.524 266.886 L 186.237 266.823 L 186.438 266.793 L 187.032 266.704 L 187.891 266.531 L 188.486 266.385 L 188.8 266.309 L 189.739 266.044 L 190.692 265.738 L 191.643 265.398 L 192.171 265.187 L 192.574 265.026 L 193.587 264.589 L 194.556 264.152 L 195.477 263.718 L 196.345 263.288 L 196.678 263.114 L 197.157 262.865 L 197.908 262.451 L 198.594 262.049 L 199.21 261.66 L 199.991 261.118 L 200.766 260.531 L 201.527 259.907 L 202.264 259.253 L 202.97 258.576 L 203.635 257.886 L 204.252 257.189 L 204.408 256.995 L 204.811 256.494 L 205.547 255.475 L 206.241 254.405 L 206.891 253.285 L 207.497 252.119 L 208.057 250.909 L 208.57 249.659 L 208.878 248.803 L 209.035 248.37 L 209.45 247.045 L 209.623 246.427 L 209.761 245.884 L 209.868 245.387 L 209.947 244.909 L 210.001 244.422 L 210.036 243.9 L 210.054 243.315 L 210.059 242.64 L 210.05 241.716 L 210.018 240.895 L 209.995 240.611 L 209.96 240.149 L 209.871 239.449 L 209.747 238.768 L 209.584 238.078 L 209.377 237.35 L 209.122 236.557 L 208.911 235.972 L 208.655 235.326 L 208.367 234.65 L 208.061 233.971 L 207.75 233.318 L 207.446 232.719 L 207.281 232.419 L 207.229 232.323 L 207.218 232.302 L 207.164 232.204 L 206.931 231.825 L 206.916 231.8 L 206.859 231.714 L 206.801 231.625 M 185.278 284.419 L 185.269 284.643 L 185.265 284.759 L 185.253 285.098 L 185.243 285.394 L 185.235 285.604 L 185.232 285.667 L 185.232 285.684 L 185.15 287.844 L 185.054 289.763 L 185.047 289.906 L 184.922 291.889 L 184.775 293.811 L 184.602 295.69 L 184.403 297.544 L 184.352 297.955 L 184.177 299.392 L 183.921 301.251 L 183.282 305.222 L 182.518 309.131 L 181.626 312.991 L 181.264 314.339 L 180.6 316.816 L 179.438 320.619 L 178.136 324.414 L 176.689 328.214 L 175.641 330.723 L 175.094 332.033 L 174.949 332.367 L 174.813 332.68 L 174.801 332.705 L 174.773 332.771 L 174.691 332.964 L 174.584 333.214 L 174.496 333.422 L 174.429 333.582 L 174.387 333.685 L 174.372 333.726 L 174.408 333.763 L 174.505 333.84 L 174.65 333.947 L 174.831 334.077 L 175.035 334.219 L 175.247 334.365 L 175.456 334.504 L 175.647 334.628 L 175.977 334.819 L 176.31 335.011 L 177.044 335.366 L 177.854 335.693 L 178.741 335.995 L 179.708 336.271 L 180.294 336.411 L 180.76 336.523 L 181.899 336.751 L 183.128 336.957 L 183.34 336.988 L 183.553 337.013 L 183.782 337.033 L 184.041 337.049 L 184.346 337.061 L 184.713 337.072 L 185.155 337.08 L 185.688 337.088 L 186.616 337.095 L 187.466 337.089 L 188.245 337.071 L 188.486 337.06 L 188.961 337.039 L 189.62 336.993 L 190.231 336.933 L 190.8 336.859 L 191.335 336.77 L 193.039 336.409 L 194.691 335.961 L 196.297 335.427 L 196.678 335.275 L 197.858 334.804 L 199.379 334.091 L 200.864 333.287 L 202.315 332.39 L 203.736 331.398 L 204.597 330.723 L 205.054 330.365 L 206.286 329.279 L 207.435 328.137 L 208.504 326.936 L 209.494 325.673 L 210.409 324.344 L 211.25 322.948 L 212.02 321.48 L 212.412 320.642 L 212.776 319.787 L 213.062 319.043 L 213.108 318.924 L 213.405 318.065 L 213.664 317.22 L 213.881 316.4 L 214.052 315.614 L 214.176 314.873 L 214.235 314.339 L 214.256 314.159 L 214.314 313.374 L 214.349 312.541 L 214.36 311.688 L 214.349 310.84 L 214.314 310.021 L 214.256 309.259 L 214.176 308.579 L 214.056 307.903 L 213.883 307.144 L 213.663 306.323 L 213.402 305.46 L 213.107 304.576 L 213.062 304.452 L 212.785 303.691 L 212.443 302.826 L 212.087 302.002 L 211.327 300.466 L 210.464 298.973 L 209.788 297.955 L 209.506 297.53 L 208.461 296.146 L 207.334 294.831 L 206.132 293.593 L 204.864 292.441 L 203.536 291.383 L 202.194 290.435 L 200.753 289.508 L 199.236 288.614 L 197.664 287.766 L 196.678 287.278 L 196.06 286.973 L 194.446 286.247 L 192.843 285.601 L 191.274 285.044 L 190.576 284.821 L 189.915 284.625 L 189.283 284.453 L 188.675 284.305 L 188.486 284.264 L 188.085 284.178 L 187.505 284.07 L 186.93 283.982 L 186.438 283.92 L 186.353 283.91 L 186.211 283.895 L 186.071 283.881 L 185.937 283.868 L 185.812 283.857 L 185.7 283.847 L 185.689 283.846 L 185.605 283.84 L 185.529 283.836 L 185.478 283.834 L 185.299 283.834 L 185.299 283.834 L 185.296 283.913 L 185.288 284.123 L 185.278 284.419 M 164.139 244.543 L 163.91 243.781 L 163.84 243.548 L 163.512 242.508 L 163.149 241.4 L 162.875 240.58 L 162.632 239.893 L 162.367 239.226 L 162.027 238.467 L 161.561 237.503 L 160.915 236.221 L 160.037 234.509 L 158.959 232.419 L 158.874 232.253 L 157.886 230.344 L 157.088 228.808 L 156.456 227.604 L 155.967 226.686 L 155.718 226.232 L 155.598 226.014 L 155.324 225.543 L 155.124 225.23 L 154.973 225.032 L 154.951 225.009 L 154.93 224.989 L 154.909 224.97 L 154.889 224.954 L 154.871 224.941 L 154.854 224.932 L 154.841 224.926 L 154.829 224.926 L 154.564 225.112 L 154.098 225.616 L 153.559 226.275 L 153.478 226.375 L 152.75 227.326 L 152.022 228.323 L 151.96 228.409 L 151.155 229.561 L 150.381 230.721 L 149.684 231.825 L 149.329 232.419 L 148.991 232.985 L 148.294 234.199 L 147.599 235.455 L 147.526 235.591 L 146.912 236.741 L 146.238 238.048 L 145.585 239.363 L 144.956 240.675 L 144.359 241.975 L 143.003 245.151 L 141.792 248.331 L 141.634 248.803 L 140.722 251.537 L 139.786 254.789 L 138.979 258.107 L 138.297 261.511 L 137.733 265.024 L 137.712 265.187 L 137.283 268.665 L 137.218 269.28 L 137.166 269.835 L 137.124 270.364 L 137.089 270.901 L 137.06 271.481 L 137.036 272.139 L 137.013 272.909 L 137.001 273.379 L 136.991 273.825 L 136.972 274.94 L 136.962 276.261 L 136.959 277.709 L 136.964 279.203 L 136.975 280.662 L 136.987 281.571 L 136.993 282.008 L 137.017 283.159 L 137.047 284.036 L 137.115 285.119 L 137.22 286.327 L 137.359 287.641 L 137.53 289.039 L 137.63 289.763 L 137.732 290.499 L 137.96 292.001 L 138.212 293.524 L 138.486 295.047 L 139.099 297.955 L 139.364 299.212 L 140.423 303.292 L 141.661 307.28 L 143.076 311.174 L 144.402 314.339 L 144.667 314.969 L 146.432 318.66 L 147.526 320.683 L 148.369 322.243 L 148.543 322.531 L 150.477 325.713 L 150.774 326.17 L 151.075 326.627 L 151.147 326.736 L 151.562 327.359 L 151.984 327.987 L 152.377 328.567 L 152.706 329.046 L 152.934 329.373 L 153.027 329.493 L 153.102 329.397 L 153.271 329.133 L 153.514 328.74 L 153.806 328.255 L 154.125 327.718 L 154.449 327.165 L 154.755 326.635 L 154.759 326.627 L 155.019 326.167 L 155.718 324.861 L 156.717 322.994 L 156.945 322.531 L 158.272 319.84 L 159.691 316.686 L 160.646 314.339 L 160.982 313.515 L 162.15 310.308 L 163.204 307.046 L 163.91 304.561 L 164.151 303.713 L 164.998 300.288 L 165.497 297.955 L 165.529 297.81 L 166.011 295.241 L 166.439 292.609 L 166.811 289.939 L 167.124 287.26 L 167.372 284.596 L 167.554 281.976 L 167.571 281.571 L 167.665 279.424 L 167.689 278.382 L 167.706 277.041 L 167.716 275.504 L 167.719 273.872 L 167.716 272.249 L 167.706 270.739 L 167.689 269.442 L 167.665 268.463 L 167.557 265.836 L 167.518 265.187 L 167.408 263.348 L 167.213 260.969 L 166.97 258.669 L 166.673 256.419 L 166.321 254.188 L 165.909 251.947 L 165.433 249.665 L 165.238 248.803 L 165.18 248.545 L 164.93 247.495 L 164.678 246.494 L 164.416 245.518 L 164.139 244.543 Z" stroke="rgb(255,0,0)" stroke-width="0.001mm" style="fill: rgb(255, 255, 255);" id="object-0"/></svg>